<?xml version="1.0"?>
<svg xmlns="http://www.w3.org/2000/svg" xmlns:xlink="http://www.w3.org/1999/xlink" version="1.1" id="Layer_1" x="0px" y="0px" viewBox="0 0 512 512" style="enable-background:new 0 0 512 512;" xml:space="preserve" width="150px" height="150px" class=""><g><circle style="fill:#8D1D2E" cx="256" cy="256" r="256" data-original="#2D4452" class="" data-old_color="#8d1d2e"/><g>
	<path style="fill:#CCCCCC" d="M105.86,346.256L244,258l-138.252-92.168c-3.484,2.94-5.752,7.28-5.752,12.168v156   C100,338.936,102.312,343.316,105.86,346.256z" data-original="#CCCCCC" class=""/>
	<path style="fill:#CCCCCC" d="M406.252,165.832L268,258l138.14,88.256c3.548-2.94,5.86-7.32,5.86-12.256V178   C412,173.112,409.736,168.772,406.252,165.832z" data-original="#CCCCCC" class=""/>
</g><path style="fill:#E6E6E6" d="M256,242L105.652,346.084c2.8,2.404,6.392,3.916,10.348,3.916h280c3.952,0,7.548-1.508,10.348-3.916  L256,242z" data-original="#E6E6E6" class=""/><path style="fill:#F5F5F5" d="M256,270l150.348-104.084c-2.8-2.404-6.396-3.916-10.348-3.916H116  c-3.956,0-7.548,1.508-10.348,3.916L256,270z" data-original="#F5F5F5" class="active-path" data-old_color=" rgb(245, 245, 245)"/></g> </svg>
