<?xml version="1.0"?>
<svg xmlns="http://www.w3.org/2000/svg" xmlns:xlink="http://www.w3.org/1999/xlink" version="1.1" id="Capa_1" x="0px" y="0px" viewBox="0 0 384 384" style="enable-background:new 0 0 384 384;" xml:space="preserve" width="150px" height="150px" class=""><g><circle style="fill:#8D1D2E" cx="192" cy="192" r="192" data-original="#E05B49" class="" data-old_color="#8d1d2e"/><path style="opacity:0.1;enable-background:new    ;" d="M383.935,194.57l-96.984-96.984c-0.178-0.181-0.356-0.359-0.537-0.537  l-0.078-0.078l-0.005,0.002C276.905,87.723,264.003,82,249.76,82c-13.76,0-26.28,5.4-35.6,14.12c-11.52-8.8-25.84-14.08-41.4-14.08  c-0.4,0-0.76-0.04-1.16-0.04c-37.4,0.6-67.08,31.92-67.08,69.32v72.16c0,1.44-0.68,2.8-1.84,3.68L83.84,241  c-1.16,0.84-1.84,2.2-1.84,3.68v22.04c0,1.277,0.529,2.424,1.374,3.251l-0.004,0.003l113.893,113.893  C300.005,381.094,382.576,297.659,383.935,194.57z" data-original="#000000" class=""/><path style="fill:#FFFFFF" d="M171.595,82c-37.414,0.615-67.074,31.916-67.074,69.336v72.132c0,1.45-0.69,2.815-1.858,3.675  l-18.805,13.844c-1.168,0.86-1.858,2.224-1.858,3.674v22.076c0,2.52,2.043,4.563,4.563,4.563h86.188V82.041  C172.363,82.04,171.986,81.995,171.595,82z" data-original="#FCD462" class="" data-old_color="#FCD462"/><path style="fill:#FFFFFF" d="M261.644,240.987l-18.805-13.844c-1.168-0.86-1.858-2.224-1.858-3.675v-73.254  c0-37.67-30.549-68.164-68.231-68.174V271.3h86.188c2.52,0,4.563-2.043,4.563-4.563v-22.076  C263.502,243.211,262.813,241.847,261.644,240.987z" data-original="#F6C358" class="" data-old_color="#F6C358"/><path style="fill:#FFFFFF" d="M142.051,271.3c0,16.955,13.745,30.7,30.7,30.7c16.955,0,30.7-13.745,30.7-30.7H142.051z" data-original="#64798A" class="active-path" data-old_color="#7F98A9"/><circle style="fill:#FFFFFF" cx="249.76" cy="134.228" r="52.24" data-original="#FFFFFF" class="" data-old_color="#FFFFF0"/><circle style="fill:#8D1D2E" cx="249.76" cy="134.228" r="42.42" data-original="#E56353" class="" data-old_color="#8d1d2e"/><path style="fill:#FFFFFF" d="M239.252,105.29h21.038v57.879h-9.279v-49.186h-11.759V105.29z" data-original="#FFFFFF" class="" data-old_color="#FFFFF0"/></g> </svg>
