<?xml version="1.0"?>
<svg xmlns="http://www.w3.org/2000/svg" xmlns:xlink="http://www.w3.org/1999/xlink" version="1.1" id="Layer_1" x="0px" y="0px" viewBox="0 0 473.931 473.931" style="enable-background:new 0 0 473.931 473.931;" xml:space="preserve" width="150px" height="150px" class=""><g transform="matrix(0.9997 0 0 0.9997 0.0710824 0.0710824)"><circle style="fill:#8D1D2E" cx="236.966" cy="236.966" r="236.966" data-original="#49A0AE" class="active-path" data-old_color="#8d1d2e"/><rect x="132.492" y="90.171" transform="matrix(-0.9875 0.1577 -0.1577 -0.9875 523.8987 447.5848)" style="fill:#FFFFFF;" width="223.401" height="308.811" data-original="#FFFFFF" class=""/><g>
	<circle style="fill:#F1EDCD;" cx="230.455" cy="156.211" r="49.893" data-original="#F1EDCD" class=""/>
	<g>
		<path style="fill:#D62127;" d="M245.546,184.394c0.55,3.199-1.598,6.238-4.789,6.784l-8.355,1.429    c-3.192,0.546-6.234-1.601-6.78-4.793l-10.23-59.782c-0.55-3.199,1.601-6.234,4.793-6.776l8.359-1.437    c3.192-0.546,6.223,1.605,6.773,4.797L245.546,184.394z" data-original="#D62127" class=""/>
		<path style="fill:#D62127;" d="M202.287,171.294c-3.195,0.546-6.234-1.598-6.78-4.797l-1.433-8.355    c-0.543-3.192,1.605-6.226,4.797-6.78l59.782-10.23c3.195-0.546,6.234,1.609,6.78,4.797l1.433,8.348    c0.543,3.199-1.609,6.238-4.797,6.784L202.287,171.294z" data-original="#D62127" class=""/>
	</g>
</g><g>
	
		<rect x="155.361" y="244.746" transform="matrix(-0.9875 0.1577 -0.1577 -0.9875 529.3362 459.021)" style="fill:#E84849;" width="182.192" height="11.529" data-original="#E84849" class=""/>
	
		<rect x="160.552" y="273.17" transform="matrix(-0.9875 0.1577 -0.1577 -0.9875 544.131 514.6945)" style="fill:#E84849;" width="182.189" height="11.529" data-original="#E84849" class=""/>
	
		<rect x="165.338" y="303.4" transform="matrix(-0.9875 0.1577 -0.1577 -0.9875 558.415 574.0211)" style="fill:#E84849;" width="182.192" height="11.529" data-original="#E84849" class=""/>
</g><polygon style="fill:none;stroke:#E84849;stroke-miterlimit:10;" points="284.202,342.614 172.409,360.474 170.276,347.116   282.155,329.788 "/><rect x="239.198" y="112.516" transform="matrix(-0.1581 -0.9874 0.9874 -0.1581 57.791 497.6981)" style="fill:#E7474A" width="3.742" height="223.393" data-original="#E7474A" class=""/></g> </svg>
