<?xml version="1.0" standalone="no"?>
<!DOCTYPE svg PUBLIC "-//W3C//DTD SVG 20010904//EN"
 "http://www.w3.org/TR/2001/REC-SVG-20010904/DTD/svg10.dtd">
<svg version="1.0" xmlns="http://www.w3.org/2000/svg"
 width="90.000000pt" height="94.000000pt" viewBox="0 0 90.000000 94.000000"
 preserveAspectRatio="xMidYMid meet">

<g transform="translate(0.000000,94.000000) scale(0.100000,-0.100000)"
fill="#000000" stroke="none">
<path d="M214 758 c-100 -101 -189 -194 -198 -208 -10 -16 -16 -45 -16 -83 0
-48 4 -62 24 -82 66 -66 174 -45 224 43 12 22 51 138 87 258 36 120 68 227 71
237 3 9 2 17 -3 17 -4 0 -90 -82 -189 -182z"/>
<path d="M537 813 c-8 -10 -34 -81 -57 -158 -47 -155 -75 -217 -122 -270 -42
-49 -122 -93 -180 -101 -27 -4 -48 -9 -48 -13 0 -4 35 -41 78 -84 82 -82 113
-94 145 -59 8 9 34 80 57 157 49 160 75 219 128 277 42 47 141 98 190 98 17 0
32 3 32 8 0 4 -35 42 -78 85 -82 82 -113 94 -145 60z"/>
<path d="M736 589 c-33 -9 -82 -52 -101 -90 -19 -35 -155 -492 -149 -498 6 -6
244 230 244 241 0 5 -9 8 -21 8 -50 0 -88 56 -69 104 11 30 47 56 77 56 33 0
76 -41 76 -73 0 -34 7 -34 39 1 65 69 83 134 53 192 -24 47 -95 75 -149 59z"/>
</g>
</svg>
